{
	"asset":{
		"generator":"Khronos glTF Blender I/O v4.4.56",
		"version":"2.0"
	},
	"scene":0,
	"scenes":[
		{
			"name":"Scene",
			"nodes":[
				0
			]
		}
	],
	"nodes":[
		{
			"mesh":0,
			"name":"Cylinder"
		}
	],
	"materials":[
		{
			"doubleSided":true,
			"name":"Material.001",
			"pbrMetallicRoughness":{
				"baseColorFactor":[
					0,
					0.1912015676498413,
					1,
					1
				]
			}
		},
		{
			"doubleSided":true,
			"name":"Material.002",
			"pbrMetallicRoughness":{
				"roughnessFactor":0.34245818853378296
			}
		},
		{
			"doubleSided":true,
			"name":"Material.003",
			"pbrMetallicRoughness":{
				"baseColorFactor":[
					0,
					0.1912015676498413,
					1,
					1
				],
				"roughnessFactor":0.8515625
			}
		},
		{
			"doubleSided":true,
			"name":"Material.004",
			"pbrMetallicRoughness":{
				"baseColorFactor":[
					0.800000011920929,
					0.800000011920929,
					0.800000011920929,
					1
				],
				"metallicFactor":0,
				"roughnessFactor":0.5
			}
		}
	],
	"meshes":[
		{
			"name":"Cylinder.001",
			"primitives":[
				{
					"attributes":{
						"POSITION":0,
						"NORMAL":1,
						"TEXCOORD_0":2
					},
					"indices":3,
					"material":0
				},
				{
					"attributes":{
						"POSITION":4,
						"NORMAL":5,
						"TEXCOORD_0":6
					},
					"indices":7,
					"material":1
				},
				{
					"attributes":{
						"POSITION":8,
						"NORMAL":9,
						"TEXCOORD_0":10
					},
					"indices":11,
					"material":2
				},
				{
					"attributes":{
						"POSITION":12,
						"NORMAL":13,
						"TEXCOORD_0":14
					},
					"indices":15,
					"material":3
				}
			]
		}
	],
	"accessors":[
		{
			"bufferView":0,
			"componentType":5126,
			"count":236,
			"max":[
				0.3446826934814453,
				0.41599372029304504,
				0.32889240980148315
			],
			"min":[
				-0.3446826934814453,
				-0.42500001192092896,
				-0.3499999940395355
			],
			"type":"VEC3"
		},
		{
			"bufferView":1,
			"componentType":5126,
			"count":236,
			"type":"VEC3"
		},
		{
			"bufferView":2,
			"componentType":5126,
			"count":236,
			"type":"VEC2"
		},
		{
			"bufferView":3,
			"componentType":5123,
			"count":474,
			"type":"SCALAR"
		},
		{
			"bufferView":4,
			"componentType":5126,
			"count":133,
			"max":[
				0.3559512495994568,
				0.4252013564109802,
				0.33964473009109497
			],
			"min":[
				-0.3559512495994568,
				0.38648420572280884,
				-0.3614423871040344
			],
			"type":"VEC3"
		},
		{
			"bufferView":5,
			"componentType":5126,
			"count":133,
			"type":"VEC3"
		},
		{
			"bufferView":6,
			"componentType":5126,
			"count":133,
			"type":"VEC2"
		},
		{
			"bufferView":7,
			"componentType":5123,
			"count":324,
			"type":"SCALAR"
		},
		{
			"bufferView":8,
			"componentType":5126,
			"count":188,
			"max":[
				0.35248836874961853,
				0.22591686248779297,
				0.3363405466079712
			],
			"min":[
				-0.35248836874961853,
				-0.22591684758663177,
				-0.3579261004924774
			],
			"type":"VEC3"
		},
		{
			"bufferView":9,
			"componentType":5126,
			"count":188,
			"type":"VEC3"
		},
		{
			"bufferView":10,
			"componentType":5126,
			"count":188,
			"type":"VEC2"
		},
		{
			"bufferView":11,
			"componentType":5123,
			"count":324,
			"type":"SCALAR"
		},
		{
			"bufferView":12,
			"componentType":5126,
			"count":64,
			"max":[
				0.35572752356529236,
				-0.40578341484069824,
				0.3394312560558319
			],
			"min":[
				-0.35572752356529236,
				-0.42515137791633606,
				-0.361215204000473
			],
			"type":"VEC3"
		},
		{
			"bufferView":13,
			"componentType":5126,
			"count":64,
			"type":"VEC3"
		},
		{
			"bufferView":14,
			"componentType":5126,
			"count":64,
			"type":"VEC2"
		},
		{
			"bufferView":15,
			"componentType":5123,
			"count":162,
			"type":"SCALAR"
		}
	],
	"bufferViews":[
		{
			"buffer":0,
			"byteLength":2832,
			"byteOffset":0,
			"target":34962
		},
		{
			"buffer":0,
			"byteLength":2832,
			"byteOffset":2832,
			"target":34962
		},
		{
			"buffer":0,
			"byteLength":1888,
			"byteOffset":5664,
			"target":34962
		},
		{
			"buffer":0,
			"byteLength":948,
			"byteOffset":7552,
			"target":34963
		},
		{
			"buffer":0,
			"byteLength":1596,
			"byteOffset":8500,
			"target":34962
		},
		{
			"buffer":0,
			"byteLength":1596,
			"byteOffset":10096,
			"target":34962
		},
		{
			"buffer":0,
			"byteLength":1064,
			"byteOffset":11692,
			"target":34962
		},
		{
			"buffer":0,
			"byteLength":648,
			"byteOffset":12756,
			"target":34963
		},
		{
			"buffer":0,
			"byteLength":2256,
			"byteOffset":13404,
			"target":34962
		},
		{
			"buffer":0,
			"byteLength":2256,
			"byteOffset":15660,
			"target":34962
		},
		{
			"buffer":0,
			"byteLength":1504,
			"byteOffset":17916,
			"target":34962
		},
		{
			"buffer":0,
			"byteLength":648,
			"byteOffset":19420,
			"target":34963
		},
		{
			"buffer":0,
			"byteLength":768,
			"byteOffset":20068,
			"target":34962
		},
		{
			"buffer":0,
			"byteLength":768,
			"byteOffset":20836,
			"target":34962
		},
		{
			"buffer":0,
			"byteLength":512,
			"byteOffset":21604,
			"target":34962
		},
		{
			"buffer":0,
			"byteLength":324,
			"byteOffset":22116,
			"target":34963
		}
	],
	"buffers":[
		{
			"byteLength":22440,
			"uri":"barrel.bin"
		}
	]
}
